<svg width="25" height="25" viewBox="0 0 25 25" fill="none" xmlns="http://www.w3.org/2000/svg">
<path d="M16.2292 12.5002C16.2292 14.5627 14.5625 16.2293 12.5 16.2293C10.4375 16.2293 8.77087 14.5627 8.77087 12.5002C8.77087 10.4377 10.4375 8.771 12.5 8.771C14.5625 8.771 16.2292 10.4377 16.2292 12.5002Z" stroke="#767E8C" stroke-width="1.5" stroke-linecap="round" stroke-linejoin="round"/>
<path d="M12.6927 20.9896C16.3698 20.9896 19.7969 18.8229 22.1823 15.0729C23.1198 13.6042 23.1198 11.1354 22.1823 9.66667C19.7969 5.91667 16.3698 3.75 12.6927 3.75C9.01562 3.75 5.58854 5.91667 3.20312 9.66667C2.26563 11.1354 2.26563 13.6042 3.20312 15.0729C5.58854 18.8229 9.01562 20.9896 12.6927 20.9896Z" stroke="#767E8C" stroke-width="1.5" stroke-linecap="round" stroke-linejoin="round"/>
</svg>
