<svg width="25" height="25" viewBox="0 0 25 25" fill="none" xmlns="http://www.w3.org/2000/svg">
<path d="M15.1354 9.86457L9.86457 15.1354C9.16562 14.4365 8.77295 13.4885 8.77295 12.5C8.77295 12.0105 8.86935 11.5259 9.05665 11.0737C9.24395 10.6215 9.51849 10.2107 9.86457 9.86457C10.2107 9.51849 10.6215 9.24395 11.0737 9.05665C11.5259 8.86935 12.0105 8.77295 12.5 8.77295C13.4885 8.77295 14.4365 9.16562 15.1354 9.86457Z" stroke="#767E8C" stroke-width="1.5" stroke-linecap="round" stroke-linejoin="round"/>
<path d="M18.5625 6.01025C16.7396 4.63525 14.6563 3.88525 12.5 3.88525C8.82294 3.88525 5.39585 6.05192 3.01044 9.80192C2.07294 11.2707 2.07294 13.7394 3.01044 15.2082C3.83335 16.4998 4.79169 17.6144 5.83335 18.5103M8.77085 20.3436C9.95835 20.8436 11.2188 21.1144 12.5 21.1144C16.1771 21.1144 19.6042 18.9478 21.9896 15.1978C22.9271 13.729 22.9271 11.2603 21.9896 9.7915C21.6459 9.24984 21.2708 8.73942 20.8854 8.26025" stroke="#767E8C" stroke-width="1.5" stroke-linecap="round" stroke-linejoin="round"/>
<path d="M16.1562 13.2293C16.0151 13.956 15.6601 14.6239 15.1367 15.1473C14.6133 15.6707 13.9454 16.0257 13.2187 16.1668M9.86456 15.1356L2.08331 22.9168M22.9166 2.0835L15.1354 9.86475" stroke="#767E8C" stroke-width="1.5" stroke-linecap="round" stroke-linejoin="round"/>
</svg>
