<svg width="32" height="32" viewBox="0 0 32 32" fill="none" xmlns="http://www.w3.org/2000/svg">
<g id="akar-icons:grid">
<g id="Group">
<path id="Vector" d="M12 4H5.33333C4.59695 4 4 4.59695 4 5.33333V12C4 12.7364 4.59695 13.3333 5.33333 13.3333H12C12.7364 13.3333 13.3333 12.7364 13.3333 12V5.33333C13.3333 4.59695 12.7364 4 12 4Z" stroke="white" stroke-width="2" stroke-linecap="round" stroke-linejoin="round"/>
<path id="Vector_2" d="M12 18.6665H5.33333C4.59695 18.6665 4 19.2635 4 19.9998V26.6665C4 27.4029 4.59695 27.9998 5.33333 27.9998H12C12.7364 27.9998 13.3333 27.4029 13.3333 26.6665V19.9998C13.3333 19.2635 12.7364 18.6665 12 18.6665Z" stroke="white" stroke-width="2" stroke-linecap="round" stroke-linejoin="round"/>
<path id="Vector_3" d="M26.666 4H19.9993C19.263 4 18.666 4.59695 18.666 5.33333V12C18.666 12.7364 19.263 13.3333 19.9993 13.3333H26.666C27.4024 13.3333 27.9993 12.7364 27.9993 12V5.33333C27.9993 4.59695 27.4024 4 26.666 4Z" stroke="white" stroke-width="2" stroke-linecap="round" stroke-linejoin="round"/>
<path id="Vector_4" d="M26.666 18.6665H19.9993C19.263 18.6665 18.666 19.2635 18.666 19.9998V26.6665C18.666 27.4029 19.263 27.9998 19.9993 27.9998H26.666C27.4024 27.9998 27.9993 27.4029 27.9993 26.6665V19.9998C27.9993 19.2635 27.4024 18.6665 26.666 18.6665Z" stroke="white" stroke-width="2" stroke-linecap="round" stroke-linejoin="round"/>
</g>
</g>
</svg>
