<svg width="32" height="32" viewBox="0 0 32 32" fill="none" xmlns="http://www.w3.org/2000/svg">
<g id="bx:bx-home">
<path id="Vector" d="M3.99906 17.3339H5.3324V26.6673C5.3324 28.1379 6.5284 29.3339 7.99906 29.3339H23.9991C25.4697 29.3339 26.6657 28.1379 26.6657 26.6673V17.3339H27.9991C28.2627 17.3339 28.5205 17.2556 28.7397 17.1091C28.9589 16.9626 29.1297 16.7544 29.2306 16.5108C29.3315 16.2672 29.3579 15.9992 29.3065 15.7406C29.2551 15.4819 29.1281 15.2444 28.9417 15.0579L16.9417 3.05793C16.818 2.934 16.6711 2.83568 16.5093 2.7686C16.3476 2.70152 16.1742 2.66699 15.9991 2.66699C15.824 2.66699 15.6506 2.70152 15.4888 2.7686C15.3271 2.83568 15.1801 2.934 15.0564 3.05793L3.0564 15.0579C2.86999 15.2444 2.74304 15.4819 2.69162 15.7406C2.6402 15.9992 2.6666 16.2672 2.76749 16.5108C2.86839 16.7544 3.03924 16.9626 3.25845 17.1091C3.47767 17.2556 3.7354 17.3339 3.99906 17.3339ZM13.3324 26.6673V20.0006H18.6657V26.6673H13.3324ZM15.9991 5.88593L23.9991 13.8859V20.0006L24.0004 26.6673H21.3324V20.0006C21.3324 18.5299 20.1364 17.3339 18.6657 17.3339H13.3324C11.8617 17.3339 10.6657 18.5299 10.6657 20.0006V26.6673H7.99906V13.8859L15.9991 5.88593Z" fill="white"/>
</g>
</svg>
