<svg width="24" height="24" viewBox="0 0 24 24" fill="none" xmlns="http://www.w3.org/2000/svg">
<path d="M20.082 3.01781L20.1081 3.76735L20.082 3.01781ZM16.5 3.4875L16.2849 2.76901V2.76901L16.5 3.4875ZM13.6738 4.80281L13.2982 4.15369L13.2982 4.15369L13.6738 4.80281ZM3.9824 3.07495L3.93639 3.82354L3.9824 3.07495ZM7 3.4875L7.19136 2.76233V2.76233L7 3.4875ZM10.2823 4.87552L9.93167 5.53853L10.2823 4.87552ZM13.6276 20.0693L13.9804 20.7311L13.6276 20.0693ZM17 18.6334L16.8086 17.9082H16.8086L17 18.6334ZM19.9851 18.2229L20.032 18.9714L19.9851 18.2229ZM10.3724 20.0693L10.0196 20.7311H10.0196L10.3724 20.0693ZM7 18.6334L7.19136 17.9082H7.19136L7 18.6334ZM4.01486 18.2229L3.96804 18.9714H3.96804L4.01486 18.2229ZM2.75 16.1436V4.99786H1.25V16.1436H2.75ZM22.75 16.1436V4.93325H21.25V16.1436H22.75ZM20.0559 2.26826C18.9175 2.30791 17.4296 2.42633 16.2849 2.76901L16.7151 4.206C17.6643 3.92185 18.9892 3.80633 20.1081 3.76735L20.0559 2.26826ZM16.2849 2.76901C15.2899 3.0669 14.1706 3.64874 13.2982 4.15369L14.0495 5.45194C14.9 4.95975 15.8949 4.45155 16.7151 4.206L16.2849 2.76901ZM3.93639 3.82354C4.90238 3.88291 5.99643 3.99835 6.80864 4.21268L7.19136 2.76233C6.23055 2.50879 5.01517 2.38701 4.02841 2.32636L3.93639 3.82354ZM6.80864 4.21268C7.77076 4.46657 8.95486 5.02202 9.93167 5.53853L10.6328 4.2125C9.63736 3.68612 8.32766 3.06218 7.19136 2.76233L6.80864 4.21268ZM13.9804 20.7311C14.9714 20.2029 16.1988 19.6205 17.1914 19.3586L16.8086 17.9082C15.6383 18.2171 14.2827 18.8702 13.2748 19.4075L13.9804 20.7311ZM17.1914 19.3586C17.9943 19.1467 19.0732 19.0314 20.032 18.9714L19.9383 17.4743C18.9582 17.5356 17.7591 17.6574 16.8086 17.9082L17.1914 19.3586ZM10.7252 19.4075C9.71727 18.8702 8.3617 18.2171 7.19136 17.9082L6.80864 19.3586C7.8012 19.6205 9.0286 20.2029 10.0196 20.7311L10.7252 19.4075ZM7.19136 17.9082C6.24092 17.6574 5.04176 17.5356 4.06168 17.4743L3.96804 18.9714C4.9268 19.0314 6.00566 19.1467 6.80864 19.3586L7.19136 17.9082ZM21.25 16.1436C21.25 16.8294 20.6817 17.4278 19.9383 17.4743L20.032 18.9714C21.5062 18.8792 22.75 17.6799 22.75 16.1436H21.25ZM22.75 4.93325C22.75 3.46995 21.5847 2.21501 20.0559 2.26826L20.1081 3.76735C20.7229 3.74594 21.25 4.25167 21.25 4.93325H22.75ZM1.25 16.1436C1.25 17.6799 2.49378 18.8792 3.96804 18.9714L4.06168 17.4743C3.31831 17.4278 2.75 16.8294 2.75 16.1436H1.25ZM13.2748 19.4075C12.4825 19.8298 11.5175 19.8298 10.7252 19.4075L10.0196 20.7311C11.2529 21.3886 12.7471 21.3886 13.9804 20.7311L13.2748 19.4075ZM13.2982 4.15369C12.4801 4.62715 11.4617 4.65076 10.6328 4.2125L9.93167 5.53853C11.2239 6.22183 12.791 6.18031 14.0495 5.45194L13.2982 4.15369ZM2.75 4.99786C2.75 4.30068 3.30243 3.78457 3.93639 3.82354L4.02841 2.32636C2.47017 2.23059 1.25 3.49871 1.25 4.99786H2.75Z" fill="#1B1C1F"/>
<path d="M12 5.50049V20.5005" stroke="#1B1C1F" stroke-width="1.5"/>
</svg>
