<svg width="16" height="16" viewBox="0 0 16 16" fill="none" xmlns="http://www.w3.org/2000/svg">
<g id="heart">
<path id="Vector" d="M13.2385 3.6202C12.9358 3.31738 12.5765 3.07717 12.1809 2.91328C11.7854 2.74939 11.3615 2.66504 10.9333 2.66504C10.5052 2.66504 10.0812 2.74939 9.68571 2.91328C9.29018 3.07717 8.93082 3.31738 8.62815 3.6202L8 4.24834L7.37185 3.6202C6.76048 3.00882 5.93128 2.66536 5.06666 2.66536C4.20205 2.66536 3.37285 3.00882 2.76148 3.6202C2.15011 4.23157 1.80664 5.06077 1.80664 5.92538C1.80664 6.78999 2.15011 7.61919 2.76148 8.23057L3.38963 8.85871L8 13.4691L12.6104 8.85871L13.2385 8.23057C13.5413 7.9279 13.7815 7.56853 13.9454 7.173C14.1093 6.77747 14.1937 6.35352 14.1937 5.92538C14.1937 5.49724 14.1093 5.07329 13.9454 4.67776C13.7815 4.28223 13.5413 3.92287 13.2385 3.6202V3.6202Z" stroke="#FF784F" stroke-width="1.18519" stroke-linecap="round" stroke-linejoin="round"/>
</g>
</svg>
