<svg width="16" height="16" viewBox="0 0 16 16" fill="none" xmlns="http://www.w3.org/2000/svg">
<g id="heart">
<path id="Vector" d="M13.2405 3.62074C12.9378 3.31793 12.5784 3.07772 12.1829 2.91383C11.7874 2.74994 11.3634 2.66559 10.9353 2.66559C10.5071 2.66559 10.0832 2.74994 9.68767 2.91383C9.29214 3.07772 8.93277 3.31793 8.6301 3.62074L8.00195 4.24889L7.3738 3.62074C6.76243 3.00937 5.93323 2.66591 5.06862 2.66591C4.20401 2.66591 3.37481 3.00937 2.76343 3.62074C2.15206 4.23212 1.80859 5.06132 1.80859 5.92593C1.80859 6.79054 2.15206 7.61974 2.76343 8.23111L3.39158 8.85926L8.00195 13.4696L12.6123 8.85926L13.2405 8.23111C13.5433 7.92844 13.7835 7.56908 13.9474 7.17355C14.1113 6.77802 14.1956 6.35407 14.1956 5.92593C14.1956 5.49779 14.1113 5.07384 13.9474 4.67831C13.7835 4.28278 13.5433 3.92341 13.2405 3.62074Z" fill="#FF784F" stroke="#FF784F" stroke-width="1.18519" stroke-linecap="round" stroke-linejoin="round"/>
</g>
</svg>
