<svg width="202" height="56" viewBox="0 0 202 56" fill="none" xmlns="http://www.w3.org/2000/svg">
<path fill-rule="evenodd" clip-rule="evenodd" d="M201.067 0V55.7467H170.432V0H201.067ZM66.5221 18.0427C67.9809 18.0427 69.4293 18.1426 70.8672 18.3425C72.3052 18.5423 73.6077 18.9519 74.7748 19.5713C75.9419 20.1907 76.8797 21.0598 77.5882 22.1788C78.2968 23.2977 78.6511 24.7563 78.6511 26.5546V42.4993C78.6511 43.6982 78.724 44.5774 78.8699 45.1368C79.0158 45.6963 79.5055 45.976 80.3391 45.976C80.7976 45.976 81.3395 45.8761 81.9647 45.6763V49.6325C81.0477 50.152 79.7765 50.4118 78.1509 50.4118C76.7755 50.4118 75.6814 50.0421 74.8686 49.3028C74.0558 48.5635 73.6494 47.3547 73.6494 45.6763C72.1906 47.3547 70.4921 48.5635 68.554 49.3028C66.6158 50.0421 64.5214 50.4118 62.2706 50.4118C60.8118 50.4118 59.426 50.2519 58.113 49.9322C56.8001 49.6125 55.6643 49.113 54.7056 48.4337C53.747 47.7543 52.9863 46.8652 52.4236 45.7662C51.8609 44.6673 51.5796 43.3385 51.5796 41.78C51.5796 40.0217 51.8922 38.5831 52.5174 37.4642C53.1426 36.3452 53.9658 35.4361 54.987 34.7368C56.0082 34.0374 57.1752 33.5079 58.4881 33.1483C59.8011 32.7886 61.1453 32.4889 62.5207 32.2491C63.9796 31.9694 65.3654 31.7596 66.6784 31.6198C67.9913 31.4799 69.1479 31.2801 70.1483 31.0203C71.1486 30.7606 71.9405 30.3809 72.524 29.8814C73.1076 29.3819 73.3993 28.6526 73.3993 27.6935C73.3993 26.5746 73.1805 25.6754 72.7429 24.9961C72.3052 24.3167 71.7425 23.7972 71.0548 23.4376C70.3671 23.0779 69.596 22.8382 68.7415 22.7183C67.8871 22.5984 67.0431 22.5384 66.2095 22.5384C63.9587 22.5384 62.0831 22.948 60.5826 23.7673C59.0821 24.5865 58.2693 26.135 58.1443 28.4128H52.83C52.9134 26.4946 53.3302 24.8762 54.0804 23.5575C54.8307 22.2387 55.831 21.1698 57.0814 20.3505C58.3318 19.5313 59.7594 18.9419 61.3641 18.5822C62.9688 18.2226 64.6881 18.0427 66.5221 18.0427ZM132.794 18.0427C135.67 18.0427 138.056 18.6122 139.953 19.7511C141.849 20.89 143.37 22.3386 144.517 24.0969C145.663 25.8553 146.455 27.7734 146.892 29.8514C147.33 31.9295 147.507 33.9076 147.424 35.7858H123.228C123.187 37.1445 123.353 38.4332 123.729 39.6521C124.104 40.8709 124.708 41.9499 125.542 42.889C126.375 43.8281 127.438 44.5774 128.73 45.1368C130.022 45.6963 131.544 45.976 133.294 45.976C135.545 45.976 137.389 45.4765 138.827 44.4775C140.265 43.4784 141.213 41.9599 141.672 39.9218H146.924C146.215 43.3985 144.652 46.016 142.235 47.7743C139.817 49.5326 136.775 50.4118 133.107 50.4118C130.522 50.4118 128.282 50.0122 126.386 49.2129C124.489 48.4137 122.895 47.2948 121.603 45.8561C120.311 44.4175 119.342 42.6992 118.696 40.7011C118.05 38.703 117.685 36.5251 117.601 34.1673C117.601 31.8096 117.977 29.6516 118.727 27.6935C119.477 25.7354 120.53 24.037 121.884 22.5984C123.239 21.1598 124.843 20.0408 126.698 19.2416C128.553 18.4424 130.585 18.0427 132.794 18.0427ZM184.436 18.0427C183.019 18.0427 181.591 18.2126 180.153 18.5523C178.715 18.8919 177.423 19.4114 176.277 20.1108C175.131 20.8101 174.193 21.7192 173.464 22.8382C172.734 23.9571 172.37 25.2958 172.37 26.8543C172.37 28.8524 172.891 30.4109 173.933 31.5298C174.975 32.6488 176.277 33.5179 177.84 34.1373C179.403 34.7568 181.102 35.2363 182.936 35.576C184.77 35.9156 186.468 36.2953 188.031 36.7149C189.594 37.1345 190.897 37.6839 191.939 38.3633C192.981 39.0427 193.502 40.0417 193.502 41.3604C193.502 42.3195 193.252 43.1088 192.751 43.7282C192.251 44.3476 191.616 44.8171 190.845 45.1368C190.073 45.4565 189.229 45.6763 188.312 45.7962C187.395 45.9161 186.52 45.976 185.687 45.976C184.603 45.976 183.55 45.8761 182.529 45.6763C181.508 45.4765 180.591 45.1468 179.778 44.6873C178.966 44.2277 178.309 43.6083 177.809 42.829C177.309 42.0498 177.038 41.1007 176.996 39.9818H171.682C171.765 41.8999 172.182 43.5284 172.932 44.8671C173.683 46.2058 174.683 47.2848 175.933 48.104C177.184 48.9232 178.622 49.5126 180.247 49.8723C181.873 50.2319 183.582 50.4118 185.374 50.4118C187 50.4118 188.635 50.2619 190.282 49.9622C191.928 49.6625 193.408 49.133 194.721 48.3737C196.034 47.6144 197.097 46.6154 197.909 45.3766C198.722 44.1378 199.129 42.5793 199.129 40.7011C199.129 39.2225 198.826 37.9837 198.222 36.9846C197.618 35.9856 196.826 35.1564 195.846 34.497C194.867 33.8376 193.741 33.3081 192.47 32.9085C191.199 32.5089 189.896 32.1692 188.563 31.8895C187.312 31.6098 186.062 31.34 184.811 31.0803C183.561 30.8205 182.436 30.5008 181.435 30.1212C180.435 29.7415 179.612 29.262 178.966 28.6826C178.32 28.1031 177.997 27.3738 177.997 26.4947C177.997 25.6954 178.205 25.046 178.622 24.5465C179.039 24.047 179.58 23.6474 180.247 23.3477C180.914 23.048 181.654 22.8382 182.467 22.7183C183.28 22.5984 184.082 22.5384 184.874 22.5384C185.749 22.5384 186.614 22.6284 187.468 22.8082C188.323 22.988 189.104 23.2777 189.813 23.6773C190.522 24.077 191.105 24.6065 191.564 25.2658C192.022 25.9252 192.293 26.7544 192.376 27.7534H197.691C197.566 25.8752 197.149 24.3068 196.44 23.048C195.732 21.7892 194.783 20.7901 193.595 20.0508C192.408 19.3115 191.043 18.792 189.5 18.4923C187.958 18.1926 186.27 18.0427 184.436 18.0427ZM34.574 18.0427C36.1995 18.0427 37.6687 18.2126 38.9817 18.5523C40.2946 18.8919 41.42 19.4214 42.3578 20.1407C43.2956 20.86 44.025 21.7892 44.546 22.9281C45.067 24.067 45.3275 25.4357 45.3275 27.0341V49.7524H40.0133V29.4318C40.0133 28.4728 39.9299 27.5736 39.7632 26.7344C39.5965 25.8952 39.2839 25.1659 38.8254 24.5465C38.3669 23.9271 37.7313 23.4376 36.9185 23.0779C36.1057 22.7183 35.0533 22.5384 33.7612 22.5384C31.1353 22.5384 29.0721 23.2577 27.5716 24.6964C26.0711 26.135 25.3209 28.0532 25.3209 30.4509V49.7524H20.0066V29.4318C20.0066 28.4328 19.9129 27.5137 19.7253 26.6745C19.5377 25.8353 19.2147 25.106 18.7562 24.4866C18.2977 23.8672 17.683 23.3876 16.9119 23.048C16.1408 22.7083 15.1509 22.5384 13.9421 22.5384C12.3999 22.5384 11.0766 22.8382 9.97206 23.4376C8.86752 24.037 7.9714 24.7563 7.28367 25.5955C6.59593 26.4347 6.09577 27.3039 5.78317 28.203C5.47056 29.1022 5.31426 29.8514 5.31426 30.4509V49.7524H0V18.7621H5.00166V23.3177H5.1267C7.54418 19.801 11.0245 18.0427 15.5677 18.0427C17.5683 18.0427 19.3814 18.4424 21.007 19.2416C22.6325 20.0408 23.7787 21.3995 24.4456 23.3177C25.5293 21.6393 26.9568 20.3405 28.7283 19.4214C30.4997 18.5023 32.4482 18.0427 34.574 18.0427ZM92.5307 6.95335V32.3091L107.286 18.7621H114.413L101.596 30.0313L115.351 49.7524H108.599L97.5323 33.5679L92.5307 38.0036V49.7524H87.2164V6.95335H92.5307ZM169.744 18.0427V23.4376C167.618 23.4376 165.805 23.7173 164.304 24.2768C162.804 24.8362 161.595 25.6555 160.678 26.7344C159.761 27.8134 159.094 29.1221 158.678 30.6607C158.261 32.1992 158.052 33.9675 158.052 35.9656V49.7524H152.738V18.7621H157.74V25.2958H157.865C159.157 22.7782 160.741 20.92 162.616 19.7211C164.492 18.5223 166.868 17.9628 169.744 18.0427ZM73.3368 33.7477C72.6699 34.2273 71.7946 34.5769 70.711 34.7967C69.6273 35.0165 68.4915 35.1963 67.3036 35.3362C66.1157 35.4761 64.9174 35.6359 63.7086 35.8157C62.4999 35.9956 61.4162 36.2853 60.4575 36.6849C59.4989 37.0845 58.7174 37.654 58.113 38.3933C57.5086 39.1326 57.2065 40.1416 57.2065 41.4204C57.2065 42.2596 57.3836 42.9689 57.7379 43.5483C58.0922 44.1278 58.5507 44.5973 59.1133 44.957C59.676 45.3167 60.3325 45.5764 61.0828 45.7362C61.833 45.8961 62.6249 45.976 63.4585 45.976C65.2091 45.976 66.7096 45.7462 67.96 45.2867C69.2105 44.8271 70.2316 44.2477 71.0236 43.5483C71.8155 42.849 72.399 42.0897 72.7741 41.2705C73.1493 40.4513 73.3368 39.682 73.3368 38.9627V33.7477ZM132.481 22.5384C131.106 22.5384 129.866 22.7682 128.761 23.2278C127.657 23.6873 126.709 24.3167 125.917 25.116C125.125 25.9152 124.5 26.8443 124.041 27.9033C123.583 28.9623 123.312 30.0912 123.228 31.2901H141.797C141.714 30.0912 141.432 28.9523 140.953 27.8733C140.474 26.7944 139.828 25.8653 139.015 25.086C138.202 24.3067 137.243 23.6873 136.139 23.2278C135.034 22.7682 133.815 22.5384 132.481 22.5384Z" fill="white"/>
</svg>
