<svg width="202" height="53" viewBox="0 0 202 53" fill="none" xmlns="http://www.w3.org/2000/svg">
<path id="Combined Shape" fill-rule="evenodd" clip-rule="evenodd" d="M201.067 0V52.8561H170.432V0H201.067ZM66.5221 17.1072C67.9809 17.1072 69.4293 17.2019 70.8672 17.3914C72.3052 17.5808 73.6077 17.9692 74.7748 18.5565C75.9419 19.1438 76.8797 19.9679 77.5882 21.0288C78.2968 22.0897 78.6511 23.4726 78.6511 25.1777V40.2957C78.6511 41.4324 78.724 42.2659 78.8699 42.7964C79.0158 43.3269 79.5055 43.5921 80.3391 43.5921C80.7976 43.5921 81.3395 43.4974 81.9647 43.3079V47.059C81.0477 47.5516 79.7765 47.7978 78.1509 47.7978C76.7755 47.7978 75.6814 47.4474 74.8686 46.7464C74.0558 46.0454 73.6494 44.8993 73.6494 43.3079C72.1906 44.8993 70.4921 46.0454 68.554 46.7464C66.6158 47.4474 64.5214 47.7978 62.2706 47.7978C60.8118 47.7978 59.426 47.6463 58.113 47.3432C56.8001 47.04 55.6643 46.5664 54.7056 45.9223C53.747 45.2782 52.9863 44.4351 52.4236 43.3932C51.8609 42.3512 51.5796 41.0914 51.5796 39.6137C51.5796 37.9465 51.8922 36.5825 52.5174 35.5216C53.1426 34.4607 53.9658 33.5987 54.987 32.9356C56.0082 32.2725 57.1752 31.7705 58.4881 31.4295C59.8011 31.0885 61.1453 30.8043 62.5207 30.577C63.9796 30.3117 65.3654 30.1128 66.6784 29.9802C67.9913 29.8476 69.1479 29.6581 70.1483 29.4119C71.1486 29.1656 71.9405 28.8056 72.524 28.332C73.1076 27.8584 73.3993 27.1669 73.3993 26.2575C73.3993 25.1966 73.1805 24.3441 72.7429 23.7C72.3052 23.0559 71.7425 22.5633 71.0548 22.2223C70.3671 21.8813 69.596 21.654 68.7415 21.5403C67.8871 21.4266 67.0431 21.3698 66.2095 21.3698C63.9587 21.3698 62.0831 21.7581 60.5826 22.5349C59.0821 23.3116 58.2693 24.7798 58.1443 26.9396H52.83C52.9134 25.1208 53.3302 23.5863 54.0804 22.336C54.8307 21.0856 55.831 20.0721 57.0814 19.2953C58.3318 18.5186 59.7594 17.9597 61.3641 17.6187C62.9688 17.2777 64.6881 17.1072 66.5221 17.1072ZM132.794 17.1072C135.67 17.1072 138.056 17.6471 139.953 18.727C141.849 19.8068 143.37 21.1803 144.517 22.8475C145.663 24.5146 146.455 26.3333 146.892 28.3036C147.33 30.2739 147.507 32.1494 147.424 33.9302H123.228C123.187 35.2185 123.353 36.4404 123.729 37.596C124.104 38.7517 124.708 39.7747 125.542 40.6651C126.375 41.5555 127.438 42.2659 128.73 42.7964C130.022 43.3269 131.544 43.5921 133.294 43.5921C135.545 43.5921 137.389 43.1185 138.827 42.1712C140.265 41.224 141.213 39.7842 141.672 37.8518H146.924C146.215 41.1482 144.652 43.63 142.235 45.2971C139.817 46.9643 136.775 47.7978 133.107 47.7978C130.522 47.7978 128.282 47.4189 126.386 46.6611C124.489 45.9033 122.895 44.8424 121.603 43.4784C120.311 42.1144 119.342 40.4851 118.696 38.5906C118.05 36.6961 117.685 34.6312 117.601 32.3957C117.601 30.1602 117.977 28.1142 118.727 26.2575C119.477 24.4009 120.53 22.7906 121.884 21.4266C123.239 20.0626 124.843 19.0017 126.698 18.2439C128.553 17.4861 130.585 17.1072 132.794 17.1072ZM184.436 17.1072C183.019 17.1072 181.591 17.2682 180.153 17.5903C178.715 17.9123 177.423 18.4049 176.277 19.068C175.131 19.7311 174.193 20.593 173.464 21.654C172.734 22.7149 172.37 23.9842 172.37 25.4619C172.37 27.3564 172.891 28.834 173.933 29.895C174.975 30.9559 176.277 31.78 177.84 32.3673C179.403 32.9546 181.102 33.4092 182.936 33.7313C184.77 34.0534 186.468 34.4133 188.031 34.8111C189.594 35.209 190.897 35.73 191.939 36.3741C192.981 37.0182 193.502 37.9655 193.502 39.2158C193.502 40.1252 193.252 40.8735 192.751 41.4608C192.251 42.0481 191.616 42.4933 190.845 42.7964C190.073 43.0995 189.229 43.3079 188.312 43.4216C187.395 43.5352 186.52 43.5921 185.687 43.5921C184.603 43.5921 183.55 43.4974 182.529 43.3079C181.508 43.1185 180.591 42.8059 179.778 42.3701C178.966 41.9344 178.309 41.3471 177.809 40.6083C177.309 39.8694 177.038 38.9695 176.996 37.9086H171.682C171.765 39.7273 172.182 41.2713 172.932 42.5406C173.683 43.8099 174.683 44.833 175.933 45.6097C177.184 46.3864 178.622 46.9453 180.247 47.2863C181.873 47.6273 183.582 47.7978 185.374 47.7978C187 47.7978 188.635 47.6558 190.282 47.3716C191.928 47.0874 193.408 46.5854 194.721 45.8655C196.034 45.1455 197.097 44.1983 197.909 43.0237C198.722 41.8491 199.129 40.3715 199.129 38.5906C199.129 37.1887 198.826 36.0141 198.222 35.0669C197.618 34.1197 196.826 33.3335 195.846 32.7083C194.867 32.0831 193.741 31.5811 192.47 31.2022C191.199 30.8233 189.896 30.5012 188.563 30.236C187.312 29.9707 186.062 29.715 184.811 29.4687C183.561 29.2224 182.436 28.9193 181.435 28.5593C180.435 28.1994 179.612 27.7447 178.966 27.1953C178.32 26.6459 177.997 25.9544 177.997 25.1209C177.997 24.3631 178.205 23.7474 178.622 23.2737C179.039 22.8001 179.58 22.4212 180.247 22.137C180.914 21.8529 181.654 21.654 182.467 21.5403C183.28 21.4266 184.082 21.3698 184.874 21.3698C185.749 21.3698 186.614 21.455 187.468 21.6255C188.323 21.796 189.104 22.0707 189.813 22.4496C190.522 22.8285 191.105 23.3306 191.564 23.9557C192.022 24.5809 192.293 25.3671 192.376 26.3144H197.691C197.566 24.5336 197.149 23.0464 196.44 21.8529C195.732 20.6593 194.783 19.7121 193.595 19.0111C192.408 18.3102 191.043 17.8176 189.5 17.5334C187.958 17.2493 186.27 17.1072 184.436 17.1072ZM34.574 17.1072C36.1995 17.1072 37.6687 17.2682 38.9817 17.5903C40.2946 17.9123 41.42 18.4144 42.3578 19.0964C43.2956 19.7784 44.025 20.6593 44.546 21.7392C45.067 22.8191 45.3275 24.1168 45.3275 25.6324V47.1727H40.0133V27.9057C40.0133 26.9964 39.9299 26.1439 39.7632 25.3482C39.5965 24.5525 39.2839 23.861 38.8254 23.2737C38.3669 22.6864 37.7313 22.2223 36.9185 21.8813C36.1057 21.5403 35.0533 21.3698 33.7612 21.3698C31.1353 21.3698 29.0721 22.0518 27.5716 23.4158C26.0711 24.7799 25.3209 26.5985 25.3209 28.8719V47.1727H20.0066V27.9057C20.0066 26.9585 19.9129 26.087 19.7253 25.2914C19.5377 24.4957 19.2147 23.8042 18.7562 23.2169C18.2977 22.6296 17.683 22.1749 16.9119 21.8529C16.1408 21.5308 15.1509 21.3698 13.9421 21.3698C12.3999 21.3698 11.0766 21.6539 9.97206 22.2223C8.86752 22.7906 7.9714 23.4727 7.28367 24.2683C6.59593 25.064 6.09577 25.8881 5.78317 26.7406C5.47056 27.5932 5.31426 28.3036 5.31426 28.8719V47.1727H0V17.7892H5.00166V22.1086H5.1267C7.54418 18.7743 11.0245 17.1072 15.5677 17.1072C17.5683 17.1072 19.3814 17.4861 21.007 18.2439C22.6325 19.0017 23.7787 20.2899 24.4456 22.1086C25.5293 20.5173 26.9568 19.2859 28.7283 18.4144C30.4997 17.5429 32.4482 17.1072 34.574 17.1072ZM92.5307 6.5928V30.6338L107.286 17.7892H114.413L101.596 28.4741L115.351 47.1727H108.599L97.5323 31.8273L92.5307 36.0331V47.1727H87.2164V6.5928H92.5307ZM169.744 17.1072V22.2223C167.618 22.2223 165.805 22.4875 164.304 23.018C162.804 23.5484 161.595 24.3252 160.678 25.3482C159.761 26.3712 159.094 27.6121 158.678 29.0709C158.261 30.5296 158.052 32.2062 158.052 34.1007V47.1727H152.738V17.7892H157.74V23.9842H157.865C159.157 21.5971 160.741 19.8353 162.616 18.6986C164.492 17.5619 166.868 17.0314 169.744 17.1072ZM73.3368 31.9978C72.6699 32.4525 71.7946 32.784 70.711 32.9924C69.6273 33.2008 68.4915 33.3713 67.3036 33.5039C66.1157 33.6366 64.9174 33.7881 63.7086 33.9586C62.4999 34.1291 61.4162 34.4038 60.4575 34.7827C59.4989 35.1616 58.7174 35.7015 58.113 36.4025C57.5086 37.1035 57.2065 38.0602 57.2065 39.2727C57.2065 40.0683 57.3836 40.7409 57.7379 41.2903C58.0922 41.8397 58.5507 42.2849 59.1133 42.6259C59.676 42.9669 60.3325 43.2132 61.0828 43.3647C61.833 43.5163 62.6249 43.5921 63.4585 43.5921C65.2091 43.5921 66.7096 43.3742 67.96 42.9385C69.2105 42.5027 70.2316 41.9534 71.0236 41.2903C71.8155 40.6272 72.399 39.9073 72.7741 39.1306C73.1493 38.3538 73.3368 37.6245 73.3368 36.9424V31.9978ZM132.481 21.3698C131.106 21.3698 129.866 21.5876 128.761 22.0234C127.657 22.4591 126.709 23.0559 125.917 23.8137C125.125 24.5715 124.5 25.4524 124.041 26.4565C123.583 27.4605 123.312 28.5309 123.228 29.6676H141.797C141.714 28.5309 141.432 27.4511 140.953 26.4281C140.474 25.405 139.828 24.5241 139.015 23.7852C138.202 23.0464 137.243 22.4591 136.139 22.0234C135.034 21.5876 133.815 21.3698 132.481 21.3698Z" fill="black"/>
</svg>
